<svg xmlns="http://www.w3.org/2000/svg" width="219" height="121" viewBox="0 0 219 121"><g fill="none" fill-rule="evenodd" stroke="#000" transform="translate(4 2.937)"><path fill="#E9E9E9" fill-rule="nonzero" d="M204.11,104.538625 C204.826665,104.538625 205.489627,104.650911 206.099452,104.872417 C206.861702,105.149287 207.478083,105.560368 207.953452,106.097952 L207.112179,107.700917 C205.662676,107.928042 205.480605,107.766947 205.259892,107.65005 C205.106123,107.568643 204.933448,107.495013 204.73887,107.426469 C204.566182,107.365636 204.363624,107.338625 204.1325,107.338625 C203.769397,107.338625 203.481728,107.39382 203.295793,107.560089 C203.142136,107.697493 203.0725,107.879244 203.0725,108.098625 C203.261345,108.474727 203.40066,108.571481 203.570427,108.655452 C203.780612,108.759414 204.019249,108.851534 204.285903,108.932886 C204.586725,109.024662 204.895199,109.125351 205.211317,109.234972 C205.5407,109.349194 205.862115,109.483334 206.175559,109.6374 C206.516531,109.804997 206.821196,110.01618 207.089906,110.270443 C207.368291,110.533862 207.594197,110.854774 207.764912,111.235141 C207.93259,111.608738 208.0225,112.062245 208.0225,112.598625 C208.0225,113.159678 207.92364,113.685024 207.728173,114.175107 C207.529788,114.672508 207.243419,115.106432 206.869686,115.477291 C206.498131,115.845987 206.040618,116.138226 205.494384,116.349856 C204.963765,116.555436 204.362696,116.661125 203.69,116.661125 C203.31151,116.661125 202.934382,116.622794 202.55863,116.545998 C202.187388,116.470124 201.829723,116.364355 201.485584,116.228867 C201.139068,116.092443 200.813082,115.928613 200.507501,115.737624 C200.067186,115.462428 199.704558,115.142346 199.417281,114.780245 L200.413324,113.172994 C201.806067,113.11494 202.106938,113.255359 202.333553,113.394614 L202.403834,113.438317 C202.578417,113.545753 202.778,113.641978 203.004755,113.730038 C203.211935,113.810496 203.461003,113.846125 203.75,113.846125 C204.130766,113.846125 204.436416,113.77919 204.64833,113.602288 C204.832936,113.448181 204.9,113.20959 204.9,112.913625 C204.701624,112.446307 204.567199,112.347491 204.403893,112.265838 C204.199933,112.163858 203.966884,112.077044 203.705336,112.003899 C203.404214,111.919687 203.095432,111.826555 202.778999,111.724479 C202.448206,111.617772 202.125414,111.489728 201.810628,111.340338 C201.463475,111.175587 201.154604,110.957835 200.883947,110.687178 C200.610578,110.41381 200.387114,110.076316 200.217614,109.671895 C200.053385,109.280051 199.965,108.794106 199.965,108.211125 C199.965,107.739438 200.057818,107.282213 200.244182,106.839596 C200.430666,106.396697 200.703923,106.002826 201.065318,105.658917 C201.418891,105.322453 201.85253,105.049456 202.36894,104.844033 C202.875176,104.642658 203.455061,104.538625 204.11,104.538625 Z M186.785,104.538625 C187.501665,104.538625 188.164627,104.650911 188.774452,104.872417 C189.536702,105.149287 190.153083,105.560368 190.628452,106.097952 L189.787179,107.700917 C188.337676,107.928042 188.155605,107.766947 187.934892,107.65005 C187.781123,107.568643 187.608448,107.495013 187.41387,107.426469 C187.241182,107.365636 187.038624,107.338625 186.8075,107.338625 C186.444397,107.338625 186.156728,107.39382 185.970793,107.560089 C185.817136,107.697493 185.7475,107.879244 185.7475,108.098625 C185.936345,108.474727 186.07566,108.571481 186.245427,108.655452 C186.455612,108.759414 186.694249,108.851534 186.960903,108.932886 C187.261725,109.024662 187.570199,109.125351 187.886317,109.234972 C188.2157,109.349194 188.537115,109.483334 188.850559,109.6374 C189.191531,109.804997 189.496196,110.01618 189.764906,110.270443 C190.043291,110.533862 190.269197,110.854774 190.439912,111.235141 C190.60759,111.608738 190.6975,112.062245 190.6975,112.598625 C190.6975,113.159678 190.59864,113.685024 190.403173,114.175107 C190.204788,114.672508 189.918419,115.106432 189.544686,115.477291 C189.173131,115.845987 188.715618,116.138226 188.169384,116.349856 C187.638765,116.555436 187.037696,116.661125 186.365,116.661125 C185.98651,116.661125 185.609382,116.622794 185.23363,116.545998 C184.862388,116.470124 184.504723,116.364355 184.160584,116.228867 C183.814068,116.092443 183.488082,115.928613 183.182501,115.737624 C182.742186,115.462428 182.379558,115.142346 182.092281,114.780245 L183.088324,113.172994 C184.481067,113.11494 184.781938,113.255359 185.008553,113.394614 L185.078834,113.438317 C185.253417,113.545753 185.453,113.641978 185.679755,113.730038 C185.886935,113.810496 186.136003,113.846125 186.425,113.846125 C186.805766,113.846125 187.111416,113.77919 187.32333,113.602288 C187.507936,113.448181 187.575,113.20959 187.575,112.913625 C187.376624,112.446307 187.242199,112.347491 187.078893,112.265838 C186.874933,112.163858 186.641884,112.077044 186.380336,112.003899 C186.079214,111.919687 185.770432,111.826555 185.453999,111.724479 C185.123206,111.617772 184.800414,111.489728 184.485628,111.340338 C184.138475,111.175587 183.829604,110.957835 183.558947,110.687178 C183.285578,110.41381 183.062114,110.076316 182.892614,109.671895 C182.728385,109.280051 182.64,108.794106 182.64,108.211125 C182.64,107.739438 182.732818,107.282213 182.919182,106.839596 C183.105666,106.396697 183.378923,106.002826 183.740318,105.658917 C184.093891,105.322453 184.52753,105.049456 185.04394,104.844033 C185.550176,104.642658 186.130061,104.538625 186.785,104.538625 Z M151.01,104.538625 C151.443852,104.538625 151.854599,104.577024 152.242328,104.652943 C152.632338,104.729308 152.996315,104.836046 153.334484,104.972404 C153.67815,105.110979 153.995335,105.278915 154.286325,105.475679 C154.704634,105.758536 155.062151,106.079237 155.360021,106.436401 L154.219576,107.994634 C152.849869,108.068244 152.664094,107.909035 152.437186,107.774725 C152.282381,107.683149 152.093457,107.604499 151.867332,107.532646 C151.639689,107.460311 151.350859,107.428625 151.0025,107.428625 C150.620136,107.428625 150.268724,107.49599 149.949142,107.634756 C149.63813,107.7698 149.371124,107.965222 149.148098,108.220986 C148.916543,108.486531 148.739689,108.813943 148.612361,109.200172 C148.477486,109.609292 148.4125,110.074898 148.4125,110.596125 C148.4125,111.118172 148.482302,111.583984 148.627411,111.992522 C148.766314,112.383587 148.954288,112.715294 149.195984,112.984796 C149.428758,113.244349 149.700298,113.441681 150.011444,113.575618 C150.32733,113.711595 150.665317,113.778625 151.025,113.778625 C151.258001,113.778625 151.46933,113.767559 151.658942,113.744715 C152.7565,113.322696 152.974051,113.134736 153.197074,112.894452 L155.569275,114.29518 C155.031674,115.154065 154.31342,115.78343 153.414319,116.183031 C152.704921,116.498319 151.8618,116.661125 150.8825,116.661125 C149.994255,116.661125 149.19675,116.507012 148.488681,116.204721 C147.770976,115.898317 147.16167,115.470932 146.659386,114.924492 C146.160659,114.381921 145.775715,113.738649 145.5071,112.993107 C145.243459,112.261368 145.11,111.462576 145.11,110.596125 C145.11,110.015034 145.173738,109.462274 145.30017,108.937717 C145.428465,108.405427 145.61602,107.915699 145.861667,107.468076 C146.108202,107.018833 146.40556,106.613536 146.753438,106.251961 C147.103123,105.888509 147.498181,105.578667 147.938737,105.322594 C148.377219,105.067726 148.855266,104.872673 149.373269,104.738376 C149.885001,104.605705 150.430512,104.538625 151.01,104.538625 Z M123.17,104.538625 C123.886665,104.538625 124.549627,104.650911 125.159452,104.872417 C125.921702,105.149287 126.538083,105.560368 127.013452,106.097952 L126.172179,107.700917 C124.722676,107.928042 124.540605,107.766947 124.319892,107.65005 C124.166123,107.568643 123.993448,107.495013 123.79887,107.426469 C123.626182,107.365636 123.423624,107.338625 123.1925,107.338625 C122.829397,107.338625 122.541728,107.39382 122.355793,107.560089 C122.202136,107.697493 122.1325,107.879244 122.1325,108.098625 C122.321345,108.474727 122.46066,108.571481 122.630427,108.655452 C122.840612,108.759414 123.079249,108.851534 123.345903,108.932886 C123.646725,109.024662 123.955199,109.125351 124.271317,109.234972 C124.6007,109.349194 124.922115,109.483334 125.235559,109.6374 C125.576531,109.804997 125.881196,110.01618 126.149906,110.270443 C126.428291,110.533862 126.654197,110.854774 126.824912,111.235141 C126.99259,111.608738 127.0825,112.062245 127.0825,112.598625 C127.0825,113.159678 126.98364,113.685024 126.788173,114.175107 C126.589788,114.672508 126.303419,115.106432 125.929686,115.477291 C125.558131,115.845987 125.100618,116.138226 124.554384,116.349856 C124.023765,116.555436 123.422696,116.661125 122.75,116.661125 C122.37151,116.661125 121.994382,116.622794 121.61863,116.545998 C121.247388,116.470124 120.889723,116.364355 120.545584,116.228867 C120.199068,116.092443 119.873082,115.928613 119.567501,115.737624 C119.127186,115.462428 118.764558,115.142346 118.477281,114.780245 L119.473324,113.172994 C120.866067,113.11494 121.166938,113.255359 121.393553,113.394614 L121.463834,113.438317 C121.638417,113.545753 121.838,113.641978 122.064755,113.730038 C122.271935,113.810496 122.521003,113.846125 122.81,113.846125 C123.190766,113.846125 123.496416,113.77919 123.70833,113.602288 C123.892936,113.448181 123.96,113.20959 123.96,112.913625 C123.761624,112.446307 123.627199,112.347491 123.463893,112.265838 C123.259933,112.163858 123.026884,112.077044 122.765336,112.003899 C122.464214,111.919687 122.155432,111.826555 121.838999,111.724479 C121.508206,111.617772 121.185414,111.489728 120.870628,111.340338 C120.523475,111.175587 120.214604,110.957835 119.943947,110.687178 C119.670578,110.41381 119.447114,110.076316 119.277614,109.671895 C119.113385,109.280051 119.025,108.794106 119.025,108.211125 C119.025,107.739438 119.117818,107.282213 119.304182,106.839596 C119.490666,106.396697 119.763923,106.002826 120.125318,105.658917 C120.478891,105.322453 120.91253,105.049456 121.42894,104.844033 C121.935176,104.642658 122.515061,104.538625 123.17,104.538625 Z M110.585,104.538625 C111.067672,104.538625 111.518098,104.578038 111.936383,104.655797 C112.35852,104.734271 112.748034,104.84298 113.1052,104.980976 C113.467365,105.120903 113.799155,105.28725 114.100938,105.479294 C114.529569,105.752059 114.902529,106.063955 115.220683,106.413869 L114.287604,107.851024 C113.910845,108.086923 113.656486,108.185792 113.470131,108.220925 C112.634554,108.006156 112.445359,107.89978 112.260062,107.805788 C112.108881,107.729102 111.947779,107.662431 111.776886,107.605466 C111.607262,107.548925 111.422321,107.505875 111.222279,107.475434 C111.014041,107.443746 110.774074,107.428625 110.5025,107.428625 C110.070098,107.428625 109.677648,107.501014 109.326283,107.650987 C108.985371,107.796498 108.694824,108.001615 108.455686,108.267786 C108.211001,108.540131 108.024564,108.868751 107.892742,109.251458 C107.754485,109.652851 107.6875,110.101332 107.6875,110.596125 C107.6875,111.132651 107.760863,111.612819 107.912975,112.035603 C108.057743,112.437972 108.260088,112.779019 108.524304,113.056019 C108.784426,113.328728 109.096363,113.53568 109.459159,113.678282 C109.836866,113.826744 110.257463,113.898625 110.72,113.898625 C111.033417,113.898625 111.313392,113.868719 111.559459,113.805569 L112.0125,112.663625 L110.903006,112.663625 L110.158727,109.998625 L115.0525,109.998625 L115.0525,115.239429 C114.391308,115.759598 113.680816,116.132177 112.921899,116.358945 C112.249288,116.559924 111.537894,116.661125 110.7875,116.661125 C109.82635,116.661125 108.957092,116.509748 108.178766,116.211837 C107.387917,115.909133 106.712631,115.486414 106.151016,114.946609 C105.586239,114.403765 105.149759,113.759809 104.842661,113.014 C104.538731,112.275883 104.385,111.470168 104.385,110.596125 C104.385,109.714341 104.531624,108.90609 104.820957,108.170587 C105.114836,107.423531 105.534537,106.781498 106.078246,106.243281 C106.620124,105.706877 107.274732,105.28666 108.043988,104.985528 C108.80077,104.689278 109.647433,104.538625 110.585,104.538625 Z M12.7441555,104.658625 L17.3792313,116.541125 L14.6113022,116.541125 L13.1263022,113.968625 L9.43347433,113.968625 L8.72142878,115.981243 L5.04971026,116.708971 L9.75856379,104.658625 L12.7441555,104.658625 Z M11.249,108.834 L10.3357075,111.408625 L12.1603597,111.408625 L11.249,108.834 Z M200.035,104.658625 L200.035,107.473625 L196.855,107.473625 L196.855,116.541125 L193.5975,116.541125 L193.5975,107.473625 L190.4175,107.473625 L190.4175,104.658625 L200.035,104.658625 Z M19.0683944,104.658625 L24.487,111.019 L24.4875,104.658625 L27.475,104.658625 L27.475,116.541125 L25.5820947,116.541125 L20.129,110.161 L20.1408326,116.541125 L17.1525,116.541125 L17.1525,104.658625 L19.0683944,104.658625 Z M181.7875,104.658625 L181.7875,116.541125 L178.5225,116.541125 L178.5225,104.658625 L181.7875,104.658625 Z M173.9425,104.658625 L173.9425,113.711125 L178.15,113.711125 L178.15,116.541125 L170.6925,116.541125 L170.6925,104.658625 L173.9425,104.658625 Z M33.44,104.658625 C34.3424535,104.658625 35.1632655,104.806743 35.9033513,105.098456 C36.6543396,105.394466 37.2961538,105.808161 37.8304763,106.337004 C38.3658768,106.866913 38.7812932,107.496563 39.0751267,108.227028 C39.3654971,108.948883 39.5125,109.738336 39.5125,110.596125 C39.5125,111.45878 39.3655481,112.251776 39.0753684,112.97587 C38.7812832,113.709709 38.3653964,114.339808 37.8295521,114.867408 C37.2954824,115.393262 36.6539877,115.805423 35.9033513,116.101294 C35.1632655,116.393007 34.3424535,116.541125 33.44,116.541125 L28.755,116.541125 L28.755,104.658625 L33.44,104.658625 Z M33.44,107.421125 L32.02,107.421125 L32.02,113.778625 L33.44,113.778625 C33.8779729,113.778625 34.2706368,113.709743 34.6166459,113.565752 C34.9470049,113.428273 35.2276014,113.229844 35.4574949,112.969162 C35.6952138,112.699605 35.8754076,112.370513 36.0026391,111.984577 C36.1374403,111.57568 36.2025,111.112589 36.2025,110.596125 C36.2025,110.084422 36.1373662,109.623844 36.0026391,109.215172 C35.875686,108.830081 35.6960098,108.502673 35.4587953,108.235807 C35.2278955,107.976044 34.9459984,107.776861 34.61421,107.636727 C34.2689172,107.490889 33.8770536,107.421125 33.44,107.421125 Z M166.284155,104.658625 L170.919231,116.541125 L168.151302,116.541125 L166.666302,113.968625 L162.973474,113.968625 L162.261429,115.981243 L158.58971,116.708971 L163.298564,104.658625 L166.284155,104.658625 Z M164.789,108.834 L163.875708,111.408625 L165.70036,111.408625 L164.789,108.834 Z M47.9075,104.658625 C48.712106,104.658625 49.4066319,104.756361 49.9922514,104.94527 C50.6086686,105.144115 51.1132314,105.424695 51.5105079,105.779406 C51.920628,106.145585 52.2234063,106.580849 52.4196506,107.08464 C52.6088252,107.570283 52.705,108.098069 52.705,108.668625 C52.705,109.270491 52.6045964,109.821218 52.4078122,110.321613 C52.2040788,110.839678 51.8955574,111.284972 51.4822713,111.657512 C51.0797168,112.020378 50.5740292,112.305911 49.9611334,112.507372 C49.3767001,112.699477 48.6925272,112.798625 47.9075,112.798625 L46.9825,112.798625 L46.9825,116.541125 L43.7325,116.541125 L43.7325,104.658625 L47.9075,104.658625 Z M47.9075,107.368625 L46.9825,107.368625 L46.9825,110.073625 L47.9075,110.073625 C48.4364094,110.073625 48.8447883,109.977697 49.0961389,109.716753 C49.3422049,109.461295 49.4475,109.106523 49.4475,108.668625 C49.4475,108.46242 49.4180268,108.273849 49.1062373,107.724134 C48.9877877,107.612756 48.8366473,107.530387 48.6568861,107.470466 C48.4463148,107.400276 48.1960965,107.368625 47.9075,107.368625 Z M158.8825,104.658625 L158.8825,116.541125 L155.6175,116.541125 L155.6175,104.658625 L158.8825,104.658625 Z M59.2591555,104.658625 L63.8942313,116.541125 L61.1263022,116.541125 L59.6413022,113.968625 L55.9484743,113.968625 L55.2364288,115.981243 L51.5647103,116.708971 L56.2735638,104.658625 L59.2591555,104.658625 Z M57.764,108.834 L56.8507075,111.408625 L58.6753597,111.408625 L57.764,108.834 Z M66.9325,104.658625 L66.9325,116.541125 L63.6675,116.541125 L63.6675,104.658625 L66.9325,104.658625 Z M145.0525,104.658625 L145.0525,107.421125 L140.3875,107.421125 L140.3875,109.218625 L144.0175,109.218625 L144.0175,111.921125 L140.3875,111.921125 L140.3875,113.778625 L145.0525,113.778625 L145.0525,116.541125 L137.1225,116.541125 L137.1225,104.658625 L145.0525,104.658625 Z M70.1283944,104.658625 L75.547,111.019 L75.5475,104.658625 L78.535,104.658625 L78.535,116.541125 L76.6420947,116.541125 L71.189,110.161 L71.2008326,116.541125 L68.2125,116.541125 L68.2125,104.658625 L70.1283944,104.658625 Z M131.8925,104.658625 C132.697106,104.658625 133.391632,104.756361 133.977251,104.94527 C134.593669,105.144115 135.098231,105.424695 135.495508,105.779406 C135.905628,106.145585 136.208406,106.580849 136.404651,107.08464 C136.593825,107.570283 136.69,108.098069 136.69,108.668625 C136.69,109.270491 136.589596,109.821218 136.392812,110.321613 C136.189079,110.839678 135.880557,111.284972 135.467271,111.657512 C135.064717,112.020378 134.559029,112.305911 133.946133,112.507372 C133.3617,112.699477 132.677527,112.798625 131.8925,112.798625 L130.9675,112.798625 L130.9675,116.541125 L127.7175,116.541125 L127.7175,104.658625 L131.8925,104.658625 Z M131.8925,107.368625 L130.9675,107.368625 L130.9675,110.073625 L131.8925,110.073625 C132.421409,110.073625 132.829788,109.977697 133.081139,109.716753 C133.327205,109.461295 133.4325,109.106523 133.4325,108.668625 C133.4325,108.46242 133.403027,108.273849 133.091237,107.724134 C132.972788,107.612756 132.821647,107.530387 132.641886,107.470466 C132.431315,107.400276 132.181096,107.368625 131.8925,107.368625 Z M88.5175,104.658625 L88.5175,107.473625 L85.3375,107.473625 L85.3375,116.541125 L82.08,116.541125 L82.08,107.473625 L78.9,107.473625 L78.9,104.658625 L88.5175,104.658625 Z M92.14,104.658625 L92.14,116.541125 L88.875,116.541125 L88.875,104.658625 L92.14,104.658625 Z M95.3358944,104.658625 L100.754,111.019 L100.755,104.658625 L103.7425,104.658625 L103.7425,116.541125 L101.849595,116.541125 L96.397,110.161 L96.4083326,116.541125 L93.42,116.541125 L93.42,104.658625 L95.3358944,104.658625 Z M112.11875,86.5386248 C112.552602,86.5386248 112.963349,86.5770236 113.351078,86.6529425 C113.741088,86.7293083 114.105065,86.8360456 114.443234,86.9724041 C114.7869,87.1109789 115.104085,87.2789146 115.395075,87.4756793 C115.813384,87.758536 116.170901,88.0792367 116.468771,88.4364014 L115.328326,89.9946336 C113.958619,90.0682441 113.772844,89.9090353 113.545936,89.7747252 C113.391131,89.683149 113.202207,89.6044989 112.976082,89.5326461 C112.748439,89.4603109 112.459609,89.4286248 112.11125,89.4286248 C111.728886,89.4286248 111.377474,89.49599 111.057892,89.6347557 C110.74688,89.7698004 110.479874,89.9652223 110.256848,90.2209863 C110.025293,90.4865311 109.848439,90.8139428 109.721111,91.2001723 C109.586236,91.6092921 109.52125,92.0748977 109.52125,92.5961248 C109.52125,93.1181716 109.591052,93.583984 109.736161,93.9925224 C109.875064,94.3835867 110.063038,94.7152943 110.304734,94.9847958 C110.537508,95.2443489 110.809048,95.4416808 111.120194,95.5756175 C111.43608,95.7115952 111.774067,95.7786248 112.13375,95.7786248 C112.366751,95.7786248 112.57808,95.7675595 112.767692,95.7447147 C113.86525,95.3226957 114.082801,95.1347361 114.305824,94.8944518 L116.678025,96.2951803 C116.140424,97.1540649 115.42217,97.7834304 114.523069,98.1830306 C113.813671,98.4983189 112.97055,98.6611248 111.99125,98.6611248 C111.103005,98.6611248 110.3055,98.5070125 109.597431,98.2047213 C108.879726,97.8983167 108.27042,97.4709325 107.768136,96.9244919 C107.269409,96.381921 106.884465,95.738649 106.61585,94.993107 C106.352209,94.2613683 106.21875,93.4625757 106.21875,92.5961248 C106.21875,92.0150339 106.282488,91.4622742 106.40892,90.937717 C106.537215,90.4054267 106.72477,89.9156989 106.970417,89.4680759 C107.216952,89.0188329 107.51431,88.6135355 107.862188,88.2519614 C108.211873,87.8885094 108.606931,87.5786671 109.047487,87.3225939 C109.485969,87.0677262 109.964016,86.8726734 110.482019,86.7383764 C110.993751,86.605705 111.539262,86.5386248 112.11875,86.5386248 Z M140.71625,86.5386248 C141.432915,86.5386248 142.095877,86.6509106 142.705702,86.8724166 C143.467952,87.1492874 144.084333,87.5603681 144.559702,88.0979517 L143.718429,89.7009173 C142.268926,89.9280417 142.086855,89.766947 141.866142,89.6500502 C141.712373,89.5686427 141.539698,89.4950132 141.34512,89.4264688 C141.172432,89.3656356 140.969874,89.3386248 140.73875,89.3386248 C140.375647,89.3386248 140.087978,89.3938204 139.902043,89.5600892 C139.748386,89.6974933 139.67875,89.8792435 139.67875,90.0986248 C139.867595,90.4747268 140.00691,90.5714809 140.176677,90.6554515 C140.386862,90.7594141 140.625499,90.8515341 140.892153,90.9328861 C141.192975,91.0246623 141.501449,91.1253508 141.817567,91.2349724 C142.14695,91.3491938 142.468365,91.4833343 142.781809,91.6374005 C143.122781,91.8049969 143.427446,92.01618 143.696156,92.2704433 C143.974541,92.5338615 144.200447,92.8547743 144.371162,93.2351406 C144.53884,93.6087382 144.62875,94.0622448 144.62875,94.5986248 C144.62875,95.1596784 144.52989,95.6850237 144.334423,96.1751072 C144.136038,96.6725076 143.849669,97.1064318 143.475936,97.4772906 C143.104381,97.8459871 142.646868,98.1382258 142.100634,98.3498558 C141.570015,98.5554361 140.968946,98.6611248 140.29625,98.6611248 C139.91776,98.6611248 139.540632,98.6227942 139.16488,98.5459982 C138.793638,98.4701239 138.435973,98.3643548 138.091834,98.2288668 C137.745318,98.0924433 137.419332,97.9286125 137.113751,97.737624 C136.673436,97.4624275 136.310808,97.1423458 136.023531,96.7802454 L137.019574,95.1729944 C138.339015,95.1179959 138.678493,95.2411277 138.903256,95.3726454 L138.975116,95.4165624 L139.010084,95.4383173 C139.184667,95.5457529 139.38425,95.6419775 139.611005,95.7300376 C139.818185,95.8104959 140.067253,95.8461248 140.35625,95.8461248 C140.737016,95.8461248 141.042666,95.7791897 141.25458,95.6022879 C141.439186,95.4481815 141.50625,95.2095895 141.50625,94.9136248 C141.307874,94.4463074 141.173449,94.3474912 141.010143,94.2658384 C140.806183,94.1638584 140.573134,94.0770438 140.311586,94.0038992 C140.010464,93.919687 139.701682,93.8265545 139.385249,93.7244791 C139.054456,93.6177718 138.731664,93.489728 138.416878,93.3403377 C138.069725,93.1755871 137.760854,92.9578352 137.490197,92.6871782 C137.216828,92.4138101 136.993364,92.0763156 136.823864,91.6718951 C136.659635,91.2800514 136.57125,90.794106 136.57125,90.2111248 C136.57125,89.7394376 136.664068,89.2822127 136.850432,88.8395963 C137.036916,88.3966973 137.310173,88.0028256 137.671568,87.6589169 C138.025141,87.3224527 138.45878,87.0494559 138.97519,86.8440333 C139.481426,86.6426577 140.061311,86.5386248 140.71625,86.5386248 Z M88.24625,86.5386248 C88.6801025,86.5386248 89.0908486,86.5770236 89.4785776,86.6529425 C89.8685883,86.7293083 90.2325651,86.8360456 90.5707342,86.9724041 C90.9143997,87.1109789 91.2315851,87.2789146 91.5225751,87.4756793 C91.9408844,87.758536 92.298401,88.0792367 92.5962711,88.4364014 L91.4558258,89.9946336 C90.0861189,90.0682441 89.9003437,89.9090353 89.6734362,89.7747252 C89.5186307,89.683149 89.3297069,89.6044989 89.103582,89.5326461 C88.8759386,89.4603109 88.5871088,89.4286248 88.23875,89.4286248 C87.8563862,89.4286248 87.5049739,89.49599 87.1853924,89.6347557 C86.8743804,89.7698004 86.6073743,89.9652223 86.3843481,90.2209863 C86.152793,90.4865311 85.9759393,90.8139428 85.8486109,91.2001723 C85.7137363,91.6092921 85.64875,92.0748977 85.64875,92.5961248 C85.64875,93.1181716 85.7185522,93.583984 85.8636615,93.9925224 C86.0025641,94.3835867 86.1905383,94.7152943 86.4322341,94.9847958 C86.6650079,95.2443489 86.9365483,95.4416808 87.2476935,95.5756175 C87.5635801,95.7115952 87.9015671,95.7786248 88.26125,95.7786248 C88.4942506,95.7786248 88.7055802,95.7675595 88.8951916,95.7447147 C89.9927496,95.3226957 90.2103011,95.1347361 90.433324,94.8944518 L92.8055255,96.2951803 C92.2679244,97.1540649 91.5496696,97.7834304 90.6505692,98.1830306 C89.9411706,98.4983189 89.0980495,98.6611248 88.11875,98.6611248 C87.2305054,98.6611248 86.4330003,98.5070125 85.7249309,98.2047213 C85.0072264,97.8983167 84.39792,97.4709325 83.8956363,96.9244919 C83.3969095,96.381921 83.0119648,95.738649 82.7433504,94.993107 C82.4797093,94.2613683 82.34625,93.4625757 82.34625,92.5961248 C82.34625,92.0150339 82.409988,91.4622742 82.5364197,90.937717 C82.6647153,90.4054267 82.8522698,89.9156989 83.0979165,89.4680759 C83.3444523,89.0188329 83.6418102,88.6135355 83.9896884,88.2519614 C84.3393732,87.8885094 84.7344308,87.5786671 85.1749867,87.3225939 C85.6134689,87.0677262 86.091516,86.8726734 86.6095189,86.7383764 C87.1212512,86.605705 87.666762,86.5386248 88.24625,86.5386248 Z M74.90125,86.6586248 L74.90125,93.6386248 C74.90125,93.9806358 74.9439842,94.2889278 75.0338287,94.5627396 C75.1159783,94.8131002 75.2332693,95.0276719 75.3899547,95.2039429 C75.5410873,95.3739671 75.7268306,95.5042813 75.9458109,95.5967816 C76.1788183,95.6952072 76.4444471,95.7411248 76.74125,95.7411248 C77.0335312,95.7411248 77.2966167,95.6950234 77.5291891,95.5967816 C77.7481694,95.5042813 77.9339127,95.3739671 78.0850453,95.2039429 C78.2417307,95.0276719 78.3590217,94.8131002 78.4411713,94.5627396 C78.5310158,94.2889278 78.57375,93.9806358 78.57375,93.6386248 L78.57375,86.6586248 L81.82375,86.6586248 L81.82375,93.6386248 C81.82375,94.3640037 81.7051441,95.029839 81.4716728,95.6368643 C81.2334979,96.2561191 80.8921376,96.7892272 80.44952,97.2374476 C80.0074986,97.6850642 79.4712268,98.0362694 78.8387364,98.2881461 C78.2190868,98.5349092 77.5203161,98.6611248 76.74125,98.6611248 C75.962594,98.6611248 75.2627931,98.5350637 74.6407176,98.2884258 C74.0053007,98.0364984 73.467581,97.6851448 73.02548,97.2374476 C72.5828624,96.7892272 72.2415021,96.2561191 72.0033272,95.6368643 C71.7698559,95.029839 71.65125,94.3640037 71.65125,93.6386248 L71.65125,86.6586248 L74.90125,86.6586248 Z M42.91625,86.5386248 C43.4433717,86.5386248 43.912437,86.6203419 44.3246523,86.7777853 C44.7482709,86.939584 45.1058028,87.1577018 45.3997783,87.4281593 C45.6974599,87.7020264 45.9305816,88.0149534 46.1002243,88.3661436 C46.3353325,88.8528589 46.4406477,89.3684129 46.4178116,89.9123511 L44.4465152,90.3155708 C43.6428117,89.6238272 43.4929313,89.3835685 43.2968387,89.1985234 C42.7734013,90.8230162 42.7684685,91.0284359 42.8880328,91.155997 L45.152678,93.5299281 C45.3203302,92.9134323 45.3816522,92.475918 45.3921089,92.0256782 L48.0769491,91.371978 C48.1424144,92.3505407 48.0428668,93.2626172 47.7814712,94.1087135 C47.6181141,94.6374748 47.4013483,95.1318029 47.1315476,95.5918772 L49.9509541,98.5411248 L46.5970551,98.5411248 L45.2220402,97.6222124 C44.7837677,97.9189332 44.3085086,98.1561448 43.7961255,98.3335935 C43.1677198,98.5512232 42.4945547,98.6611248 41.77625,98.6611248 C41.2938606,98.6611248 40.8198977,98.5777877 40.3544919,98.4103551 C39.8863436,98.2419359 39.4699105,98.001652 39.1045806,97.6905508 C38.7340892,97.3750542 38.4354222,96.9933545 38.2096142,96.5446335 C37.9811258,96.090586 37.86375,95.5799414 37.86375,95.0111248 C37.86375,94.6172625 37.9263379,94.245646 38.0497548,93.8959647 C38.1711968,93.551879 38.3416569,93.2308437 38.5614185,92.9330089 C38.7773159,92.6404111 39.0341278,92.37593 39.3324357,92.1401247 C39.4841646,92.0201866 39.6438053,91.9081337 39.8113676,91.8040243 C39.6741555,91.5511088 39.5668739,91.3019326 39.4886704,91.0568949 C39.3598241,90.6531767 39.29625,90.2536683 39.29625,89.8586248 C39.29625,89.4122218 39.3789836,88.9879785 39.5434227,88.5856899 C39.7097782,88.1787132 39.9504233,87.8222557 40.2653074,87.5162834 C40.5760162,87.2143683 40.957339,86.9733397 41.4120029,86.7973408 C41.8523397,86.6268878 42.3533429,86.5386248 42.91625,86.5386248 Z M41.1404639,94.1194746 C41.0274933,94.3473306 40.97125,94.5895854 40.97125,94.8461248 C40.97125,95.0354486 40.9994084,95.2064243 41.0614346,95.3578413 C41.1196275,95.4999005 41.1989995,95.6222562 41.30182,95.723363 C41.404174,95.8240111 41.525761,95.9007954 41.6655212,95.955336 C41.814062,96.0133031 41.9736223,96.0411248 42.14375,96.0411248 C42.475918,96.0411248 42.7839163,95.9946153 43.0672511,95.8987502 C43.1619543,95.8667077 43.253923,95.8302677 43.3431471,95.7894104 Z M207.18125,86.6586248 C207.996148,86.6586248 208.692481,86.7460671 209.27125,86.9148748 C209.8837,87.0935061 210.382987,87.3456859 210.773834,87.6628958 C211.186607,87.9978995 211.48709,88.3982136 211.678404,88.8615501 C211.86228,89.3068758 211.95625,89.7964509 211.95625,90.3311248 C211.95625,90.744461 211.896675,91.1361148 211.779011,91.5063242 C211.659632,91.8819309 211.486055,92.2238603 211.258969,92.5324651 C211.033845,92.838402 210.757312,93.1103077 210.428215,93.347027 C210.363538,93.3935485 210.296953,93.4382983 210.22845,93.4812591 L210.098,93.557 L210.121526,93.5823188 C210.157405,93.624346 210.192188,93.6680267 210.22585,93.7133661 L210.323449,93.8543658 L213.35817,98.5411248 L210.40625,98.5411248 C209.822012,98.5411248 209.412419,98.3027318 209.153343,97.864829 L207.193234,94.7045091 L206.51125,94.534013 L206.51125,98.5411248 L203.26125,98.5411248 L203.26125,86.6586248 L207.18125,86.6586248 Z M207.18125,89.3686248 L206.51125,89.3686248 L206.51125,91.8111248 L207.16625,91.8111248 C207.467126,91.8111248 207.727679,91.7766778 207.946472,91.7003069 C208.13691,91.633833 208.295696,91.5455946 208.668853,91.0452533 C208.729868,90.877464 208.75875,90.69422 208.75875,90.4961248 C208.75875,90.1513964 208.657987,89.8741844 208.425184,89.6804653 C208.152731,89.4537531 207.729521,89.3686248 207.18125,89.3686248 Z M3.63691057,86.6586248 L6.88232852,93.7295596 L6.908,93.8 L6.92780966,93.7488002 L9.29972661,87.3932791 C9.93696099,86.654215 10.1970178,86.6586248 10.47875,86.6586248 L13.041469,86.6586248 L8.25898791,98.5411248 L5.54351209,98.5411248 L0.761031046,86.6586248 L3.63691057,86.6586248 Z M201.98125,86.6586248 L201.98125,98.5411248 L198.71625,98.5411248 L198.71625,86.6586248 L201.98125,86.6586248 Z M18.9279055,86.6586248 L23.5629813,98.5411248 L20.7950522,98.5411248 L19.3100522,95.9686248 L15.6172243,95.9686248 L14.9051788,97.9812433 L11.2334603,98.7089713 L15.9423138,86.6586248 L18.9279055,86.6586248 Z M17.433,90.834 L16.5194575,93.4086248 L18.3441097,93.4086248 L17.433,90.834 Z M194.307905,86.6586248 L198.942981,98.5411248 L196.175052,98.5411248 L194.690052,95.9686248 L190.997224,95.9686248 L190.285179,97.9812433 L186.61346,98.7089713 L191.322314,86.6586248 L194.307905,86.6586248 Z M192.813,90.834 L191.899458,93.4086248 L193.72411,93.4086248 L192.813,90.834 Z M182.95625,86.6586248 C183.760856,86.6586248 184.455382,86.756361 185.041001,86.9452705 C185.657419,87.1441148 186.161981,87.4246948 186.559258,87.779406 C186.969378,88.1455847 187.272156,88.5808489 187.468401,89.0846403 C187.657575,89.5702826 187.75375,90.0980693 187.75375,90.6686248 C187.75375,91.2704914 187.653346,91.8212184 187.456562,92.3216127 C187.252829,92.8396777 186.944307,93.284972 186.531021,93.6575117 C186.128467,94.0203777 185.622779,94.3059109 185.009883,94.507372 C184.42545,94.6994774 183.741277,94.7986248 182.95625,94.7986248 L182.03125,94.7986248 L182.03125,98.5411248 L178.78125,98.5411248 L178.78125,86.6586248 L182.95625,86.6586248 Z M182.95625,89.3686248 L182.03125,89.3686248 L182.03125,92.0736248 L182.95625,92.0736248 C183.485159,92.0736248 183.893538,91.9776972 184.144889,91.7167531 C184.390955,91.4612953 184.49625,91.1065233 184.49625,90.6686248 C184.49625,90.4624203 184.466777,90.273849 184.154987,89.7241344 C184.036538,89.6127564 183.885397,89.5303869 183.705636,89.4704665 C183.495065,89.400276 183.244846,89.3686248 182.95625,89.3686248 Z M178.10125,86.6586248 L178.10125,89.4211248 L173.43625,89.4211248 L173.43625,91.2186248 L177.06625,91.2186248 L177.06625,93.9211248 L173.43625,93.9211248 L173.43625,95.7786248 L178.10125,95.7786248 L178.10125,98.5411248 L170.17125,98.5411248 L170.17125,86.6586248 L178.10125,86.6586248 Z M25.2521444,86.6586248 L30.671,93.02 L30.67125,86.6586248 L33.65875,86.6586248 L33.65875,98.5411248 L31.7658447,98.5411248 L26.313,92.161 L26.3245826,98.5411248 L23.33625,98.5411248 L23.33625,86.6586248 L25.2521444,86.6586248 Z M164.34875,86.6586248 C165.163648,86.6586248 165.859981,86.7460671 166.43875,86.9148748 C167.0512,87.0935061 167.550487,87.3456859 167.941334,87.6628958 C168.354107,87.9978995 168.65459,88.3982136 168.845904,88.8615501 C169.02978,89.3068758 169.12375,89.7964509 169.12375,90.3311248 C169.12375,90.744461 169.064175,91.1361148 168.946511,91.5063242 C168.827132,91.8819309 168.653555,92.2238603 168.426469,92.5324651 C168.201345,92.838402 167.924812,93.1103077 167.595715,93.347027 C167.531038,93.3935485 167.464453,93.4382983 167.39595,93.4812591 L167.266,93.556 L167.289026,93.5823188 C167.324905,93.624346 167.359688,93.6680267 167.39335,93.7133661 L167.490949,93.8543658 L170.52567,98.5411248 L167.57375,98.5411248 C166.989512,98.5411248 166.579919,98.3027318 166.320843,97.864829 L164.360734,94.7045091 L163.67875,94.534013 L163.67875,98.5411248 L160.42875,98.5411248 L160.42875,86.6586248 L164.34875,86.6586248 Z M164.34875,89.3686248 L163.67875,89.3686248 L163.67875,91.8111248 L164.33375,91.8111248 C164.634626,91.8111248 164.895179,91.7766778 165.113972,91.7003069 C165.30441,91.633833 165.463196,91.5455946 165.836353,91.0452533 C165.897368,90.877464 165.92625,90.69422 165.92625,90.4961248 C165.92625,90.1513964 165.825487,89.8741844 165.592684,89.6804653 C165.320231,89.4537531 164.897021,89.3686248 164.34875,89.3686248 Z M148.52875,86.6586248 L148.52875,91.2786248 L152.32125,91.2786248 L152.32125,86.6586248 L155.58625,86.6586248 L155.58625,98.5411248 L152.32125,98.5411248 L152.32125,93.8536248 L148.52875,93.8536248 L148.52875,98.5411248 L145.26375,98.5411248 L145.26375,86.6586248 L148.52875,86.6586248 Z M61.68625,86.6586248 L61.68625,89.4736248 L58.50625,89.4736248 L58.50625,98.5411248 L55.24875,98.5411248 L55.24875,89.4736248 L52.06875,89.4736248 L52.06875,86.6586248 L61.68625,86.6586248 Z M120.64625,86.6586248 C121.461148,86.6586248 122.157481,86.7460671 122.73625,86.9148748 C123.3487,87.0935061 123.847987,87.3456859 124.238834,87.6628958 C124.651607,87.9978995 124.95209,88.3982136 125.143404,88.8615501 C125.32728,89.3068758 125.42125,89.7964509 125.42125,90.3311248 C125.42125,90.744461 125.361675,91.1361148 125.244011,91.5063242 C125.124632,91.8819309 124.951055,92.2238603 124.723969,92.5324651 C124.498845,92.838402 124.222312,93.1103077 123.893215,93.347027 C123.828538,93.3935485 123.761953,93.4382983 123.69345,93.4812591 L123.563,93.557 L123.586528,93.5823226 C123.622408,93.6243516 123.657193,93.6680351 123.690859,93.7133788 L123.788468,93.854396 L125.661718,96.7478593 L129.604833,86.6586248 L132.590405,86.6586248 L137.225481,98.5411248 L134.457552,98.5411248 L132.972552,95.9686248 L129.279724,95.9686248 L128.558453,98.0073211 L123.901664,98.5409115 C123.301199,98.5492964 122.881891,98.3102916 122.618343,97.864829 L120.658234,94.7045091 L119.97625,94.534013 L119.97625,98.5411248 L116.72625,98.5411248 L116.72625,86.6586248 L120.64625,86.6586248 Z M131.096,90.834 L130.181958,93.4086248 L132.00661,93.4086248 L131.096,90.834 Z M120.64625,89.3686248 L119.97625,89.3686248 L119.97625,91.8111248 L120.63125,91.8111248 C120.932126,91.8111248 121.192679,91.7766778 121.411472,91.7003069 C121.60191,91.633833 121.760696,91.5455946 122.133853,91.0452533 C122.194868,90.877464 122.22375,90.69422 122.22375,90.4961248 C122.22375,90.1513964 122.122987,89.8741844 121.890184,89.6804653 C121.617731,89.4537531 121.194521,89.3686248 120.64625,89.3686248 Z M65.96375,86.6586248 C66.7786477,86.6586248 67.4749808,86.7460671 68.05375,86.9148748 C68.6662002,87.0935061 69.1654866,87.3456859 69.5563344,87.6628958 C69.969107,87.9978995 70.2695905,88.3982136 70.4609036,88.8615501 C70.64478,89.3068758 70.73875,89.7964509 70.73875,90.3311248 C70.73875,90.744461 70.6791748,91.1361148 70.5615114,91.5063242 C70.4421325,91.8819309 70.2685554,92.2238603 70.0414688,92.5324651 C69.8163454,92.838402 69.5398123,93.1103077 69.2107147,93.347027 C69.1460385,93.3935485 69.0794534,93.4382983 69.0109504,93.4812591 L68.881,93.556 L68.9040257,93.5823188 C68.9399046,93.624346 68.974688,93.6680267 69.0083504,93.7133661 L69.1059488,93.8543658 L72.1406701,98.5411248 L69.18875,98.5411248 C68.6045121,98.5411248 68.1949186,98.3027318 67.9358429,97.864829 L65.9757344,94.7045091 L65.29375,94.534013 L65.29375,98.5411248 L62.04375,98.5411248 L62.04375,86.6586248 L65.96375,86.6586248 Z M65.96375,89.3686248 L65.29375,89.3686248 L65.29375,91.8111248 L65.94875,91.8111248 C66.249626,91.8111248 66.5101793,91.7766778 66.7289716,91.7003069 C66.9194103,91.633833 67.0781961,91.5455946 67.4513533,91.0452533 C67.5123676,90.877464 67.54125,90.69422 67.54125,90.4961248 C67.54125,90.1513964 67.4404866,89.8741844 67.2076838,89.6804653 C66.9352315,89.4537531 66.5120209,89.3686248 65.96375,89.3686248 Z M96.10375,86.6586248 L96.10375,91.1455096 L99.1998781,87.3254628 C99.390124,87.0693625 99.603565,86.8996815 99.8291166,86.8014574 C100.038403,86.7103166 100.293971,86.6586248 100.59875,86.6586248 L103.570015,86.6586248 L99.4787926,91.9276234 C99.4326524,91.9870929 99.3861403,92.0435746 99.3392984,92.0971225 L99.248,92.194 L99.3004483,92.2397355 C99.3855046,92.3199546 99.4692773,92.4112067 99.5514109,92.5139833 L99.6733375,92.676853 L103.779194,98.5411248 L100.585288,98.5411248 L96.7758668,94.0671796 C96.4990122,93.866004 96.3858659,93.8236248 96.23375,93.8236248 L96.10375,98.5411248 L92.85375,98.5411248 L92.85375,86.6586248 L96.10375,86.6586248 Z"/><path fill="#3839FA" stroke-linecap="round" stroke-linejoin="round" stroke-width="4" d="M166.620155,45.0629034 C170.829156,45.0629034 174.071065,46.1864548 176.417705,48.2718814 C178.853683,50.4367003 180.131783,53.3955903 180.131783,57.2076402 C180.131783,59.2140308 179.658785,61.0677428 178.720976,62.7709755 C178.099919,63.8989293 177.310519,64.8797407 176.351046,65.7117707 L184.58268,79.0629034 L171.270257,79.0629034 L166.124,69.369 L166.089844,69.371633 L165.44186,69.3765948 L165.44186,79.0629034 L154,79.0629034 L154,45.0629034 L166.620155,45.0629034 Z M165.44186,55.0629034 L165.44186,59.3918508 L165.573643,59.3918508 C166.681105,59.3918508 167.567834,59.2639594 168.137599,58.793596 C168.575138,58.432391 168.689922,57.8529879 168.689922,57.1681665 C168.689922,56.5162836 168.601789,55.9571763 168.189312,55.6224289 C167.636787,55.1740248 166.756836,55.0629034 165.44186,55.0629034 Z"/><path fill="#FA7510" stroke-linecap="round" stroke-linejoin="round" stroke-width="4" d="M45,45.0629034 C48.3315901,45.0629034 51.3408555,45.7870391 54.0335668,47.2135046 C56.771466,48.6639084 58.9511644,50.7274263 60.5705021,53.4064815 C62.1797499,56.068844 63,59.1178892 63,62.5629034 C63,65.7140362 62.2414032,68.6132234 60.7333436,71.2630177 C59.2231012,73.9166472 57.0870306,76.052295 54.3146903,77.6598639 C51.5660794,79.253673 48.4635277,80.0629034 45,80.0629034 C41.6684099,80.0629034 38.6591445,79.3387677 35.9664332,77.9123022 C33.228534,76.4618984 31.0488356,74.3983805 29.4294979,71.7193253 C27.8202501,69.0569628 27,66.0079175 27,62.5629034 C27,59.4117706 27.7585968,56.5125834 29.2666564,53.8627891 C30.7768988,51.2091596 32.9129694,49.0735117 35.6853097,47.4659429 C38.4339206,45.8721337 41.5364723,45.0629034 45,45.0629034 Z M45,55.9909337 C43.874977,55.9909337 42.8619365,56.2425167 41.9678308,56.7701754 C41.0821794,57.2928448 40.3864859,58.0390385 39.8674587,58.9957696 C39.3158406,60.012576 39.0583942,61.1919055 39.0583942,62.523762 C39.0583942,63.8110583 39.3053974,64.9773789 39.82242,66.0170545 C40.3019276,66.9812917 40.985131,67.7457269 41.8775819,68.3053398 C42.7780046,68.8699515 43.8223237,69.1348731 45,69.1348731 C46.125023,69.1348731 47.1380635,68.8832901 48.0321692,68.3556314 C48.9178206,67.8329619 49.6135141,67.0867683 50.1325413,66.1300372 C50.6841594,65.1132308 50.9416058,63.9339013 50.9416058,62.6020448 C50.9416058,61.3147484 50.6946026,60.1484278 50.17758,59.1087522 C49.6980724,58.1445151 49.014869,57.3800799 48.1224181,56.820467 C47.2219954,56.2558553 46.1776763,55.9909337 45,55.9909337 Z"/><path fill="#F9050F" stroke-linecap="round" stroke-linejoin="round" stroke-width="4" d="M16.3137255,45.0629034 C18.1964617,45.0629034 20.0649638,45.2857888 21.9192019,45.7322943 C24.4610674,46.3443823 26.4758016,47.2529554 27.9835563,48.4109022 L25.9244792,58.8601592 C24.2072336,57.6333102 22.3116202,56.7744181 20.2395597,56.2776005 C19.0647702,55.9959214 17.9131776,55.8531847 16.7843137,55.8531847 C14.719147,55.8531847 13.0477715,56.3655369 11.8312148,57.5256439 C10.6494699,58.6525545 10.1176471,60.1962552 10.1176471,62.1012666 C10.1176471,63.9956221 10.6423485,65.5242678 11.8185966,66.6265975 C13.0423615,67.7734579 14.7460906,68.2726221 16.8627451,68.2726221 C17.9346634,68.2726221 19.124898,68.0857859 20.4354756,67.7290313 C22.8214862,67.0795313 24.9373712,66.0793755 26.7783851,64.7157742 L28.1375539,75.6693238 C26.594318,76.8150447 24.5355617,77.7247133 21.9424414,78.3542712 C19.9937215,78.8273816 18.0520621,79.0629034 16.1176471,79.0629034 C12.5384033,79.0629034 9.42004418,78.3943824 6.75251954,77.0966677 C3.96890187,75.7424753 1.81354019,73.766706 0.279289898,71.1769229 C-1.22356999,68.6401262 -2,65.6327079 -2,62.1396297 C-2,59.7745575 -1.58219596,57.5694884 -0.75690543,55.5222809 C0.0800647807,53.4461009 1.31211985,51.6177583 2.94134587,50.0385724 C4.55273676,48.4766738 6.50757155,47.247578 8.81485629,46.3649837 C11.0688629,45.5027697 13.5673094,45.0629034 16.3137255,45.0629034 Z"/><path fill="#E9E9E9" fill-rule="nonzero" stroke-width="2" d="M37.0238597,-1 C38.0983855,-1 39.0052337,-0.727364324 39.7549428,-0.213278081 C40.4988416,0.296823929 41.0844609,1.03261259 41.4894401,2.0130887 C41.8577694,2.90483324 42.0492439,3.93121722 42.0492439,5.09542309 C42.0492439,7.15700574 41.3685183,9.45804875 39.9615144,11.9888284 C38.6193731,14.4029398 36.946902,16.734903 34.9423506,18.9834866 C32.9436509,21.2255064 31.0347787,23.0531173 29.2186579,24.4695177 C27.1590748,26.0757955 25.6623949,26.7573637 24.7693671,26.7573637 C24.0044534,26.7573637 23.2842492,26.476407 22.6255777,25.8674465 C21.9417497,25.2352282 21.6292894,24.5113213 21.6292894,23.7191945 C21.6292894,22.5961267 22.1669931,21.2148634 23.3694695,19.6049363 C24.4320535,18.1823033 25.5913875,16.8783662 26.84716,15.6928468 C28.4442818,14.1850744 29.4150943,13.7002956 29.7119275,13.7002956 C29.8377519,13.7002956 30.0846783,13.7874016 30.4489491,14.0026659 C30.4825871,14.0586497 30.5136966,14.1132468 30.5423325,14.1666522 L30.593,14.269 L30.6144062,14.2483593 C30.7540581,14.1063037 30.893496,13.9562382 31.0376137,13.7970709 L31.2579117,13.5513573 C32.5958774,12.0482106 33.8220036,10.392031 34.9369619,8.58332089 C35.9518797,6.93689868 36.5079249,5.59375515 36.5079249,4.53492655 C36.5079249,4.32802699 36.5058005,4.14644066 36.4110479,4.02894737 C35.1678487,4.00629963 33.5850015,4.97423368 31.4432021,6.68015807 C29.0673048,8.57253947 26.6346136,10.9833197 24.1421076,13.9093051 C21.6514,16.8331792 19.5722108,19.8523342 17.9061543,22.9678599 C16.3032355,25.965318 15.4766125,28.5987887 15.4766125,30.878264 C15.4766125,32.1063796 15.6466566,33.1364641 16.0142706,33.96172 C16.3450845,34.7043635 16.826725,35.2829544 17.4691471,35.6886947 C18.1282388,36.1049631 18.9257042,36.2984971 19.8522838,36.2984971 C22.1660596,36.2984971 24.780859,35.3668955 27.7109328,33.567448 C30.5869887,31.8011745 33.7312178,29.2481431 37.1482039,25.9150786 C37.2986972,24.9545577 37.6684767,23.9172658 38.2730882,22.8076258 C39.0392588,21.4014775 40.0296101,20.0890211 41.2465747,18.8720565 C42.465224,17.6534072 43.7706755,16.6710306 45.160684,15.9218702 C46.6388213,15.1252118 48.0139551,14.7448574 49.2783522,14.7448574 C50.2823788,14.7448574 51.0631125,14.9251975 51.6367854,15.2332811 C52.0309439,15.4449588 52.3157154,15.7083824 52.5116206,16.0022402 C52.7342093,16.3361232 52.8515409,16.7161467 52.8515409,17.1460987 C52.8515409,17.351995 52.8158456,17.5750378 52.7344621,17.8125332 C53.0136011,17.9828014 53.2283666,18.1790887 53.3877836,18.3897469 C53.709009,18.8142233 53.9470568,19.564094 53.9470568,20.7128949 C53.9470568,21.6052566 53.7481298,22.7318179 53.3294591,24.0901716 C53.1260096,24.7502521 52.8851945,25.3899543 52.607082,26.0093089 L52.423,26.403 L52.4724019,26.3808304 C52.5294565,26.3525383 52.5765281,26.3228722 52.6201085,26.2925535 L52.6627656,26.2620441 C52.8233515,26.1446928 53.1243049,25.9209019 53.5655599,25.5906713 C53.6478972,25.3162809 53.7457168,25.0556835 53.8586507,24.8077797 C54.2220009,24.0101817 54.7826554,23.0164388 55.5448811,21.8287848 C56.7505265,20.0822879 57.7249031,18.8598121 58.4775722,18.1248529 C59.4205946,17.2040193 60.4228186,16.7830266 61.4564134,16.7830266 C62.1488661,16.7830266 62.7279299,16.9357905 63.2032632,17.2091071 C63.5316261,17.3979158 63.7679921,17.630139 63.9311616,17.887131 C64.2431369,19.3408838 63.9172127,20.14132 63.0804221,21.241757 C62.7549645,21.669756 62.3864867,22.1047516 61.9746608,22.5464372 L61.765,22.765 L62.1363998,22.3928964 C62.4656456,22.0620559 62.8020662,21.724572 63.1456618,21.3804448 L63.6664364,20.8592715 C65.1017682,19.4239396 66.43341,18.2330163 67.6599346,17.2848518 C69.0979075,16.1732274 70.3275665,15.6875106 71.3160571,15.6875106 C72.1314098,15.6875106 72.8031971,15.9946618 73.3328634,16.6058152 C73.8174731,17.1649802 74.0739781,17.8508774 74.0739781,18.6747256 C74.0739781,19.1288104 73.8221606,19.9630594 73.1962494,21.1627223 C72.9344955,21.6644173 72.6130812,22.2252061 72.2316766,22.8448969 L72.218,22.865 L72.3133668,22.778973 C73.580765,21.6197568 74.6173161,20.6696617 75.4230192,19.9286867 L75.6196356,19.7477996 C76.5925802,18.8523461 77.4494001,18.0947849 78.1898695,17.474857 C79.2547986,16.5832884 79.9505636,16.3244385 80.2330475,16.3244385 C80.4380829,16.3244385 80.8608467,16.4608082 81.4843571,16.8765494 C81.7851475,17.1994338 82.0368237,17.5947814 82.2717112,18.1372596 C82.7001687,19.1267924 82.88906,19.919848 82.88906,20.509078 C82.88906,20.9095616 82.4093832,21.9096584 81.0142952,23.4585356 C79.961563,24.6273171 79.1731735,25.5591402 78.6509372,26.2554553 C78.2590996,26.7779054 78.0484081,27.3221903 78.0484081,27.8974414 C78.9389354,28.4260684 79.3213015,28.1964515 79.7779441,27.8581977 C80.3456501,27.4376748 81.1878237,26.7381495 82.3055943,25.7612054 C82.3973345,25.4243554 82.5115668,25.1068088 82.6477912,24.8077797 C83.0111414,24.0101817 83.5717959,23.0164388 84.3340216,21.8287848 C85.539667,20.0822879 86.5140436,18.8598121 87.2667127,18.1248529 C88.2097351,17.2040193 89.2119591,16.7830266 90.2455539,16.7830266 C90.9380066,16.7830266 91.5170704,16.9357905 91.9924037,17.2091071 C92.3207666,17.3979158 92.5571326,17.630139 92.7203021,17.887131 C93.0322774,19.3408838 92.7063532,20.14132 91.8695625,21.241757 C91.5441049,21.669756 91.1756272,22.1047516 90.7638012,22.5464372 L90.542,22.778 L90.9255403,22.3928964 C91.2547861,22.0620559 91.5912067,21.724572 91.9348023,21.3804448 L92.4555768,20.8592715 C93.8909087,19.4239396 95.2225505,18.2330163 96.4490751,17.2848518 C97.887048,16.1732274 99.116707,15.6875106 100.105198,15.6875106 C100.92055,15.6875106 101.592338,15.9946618 102.122004,16.6058152 C102.606614,17.1649802 102.863119,17.8508774 102.863119,18.6747256 C102.863119,19.1288104 102.611301,19.9630594 101.98539,21.1627223 C101.723636,21.6644173 101.402222,22.2252061 101.020817,22.8448969 L101.007,22.865 L101.102507,22.778973 C102.369905,21.6197568 103.406457,20.6696617 104.21216,19.9286867 L104.408776,19.7477996 C105.381721,18.8523461 106.238541,18.0947849 106.97901,17.474857 C108.043939,16.5832884 108.739704,16.3244385 109.022188,16.3244385 C109.227223,16.3244385 109.649987,16.4608082 110.273498,16.8765494 C110.574288,17.1994338 110.825964,17.5947814 111.060852,18.1372596 C111.489309,19.1267924 111.678201,19.919848 111.678201,20.509078 C111.678201,20.9095616 111.198524,21.9096584 109.803436,23.4585356 C108.750703,24.6273171 107.962314,25.5591402 107.440078,26.2554553 C107.04824,26.7779054 106.837549,27.3221903 106.837549,27.8974414 C107.728076,28.4260684 108.110442,28.1964515 108.567085,27.8581977 C109.173869,27.4087278 110.093831,26.6409599 111.328194,25.5567154 C111.557424,24.5938278 111.917908,23.6844059 112.409248,22.8270679 C113.287419,21.2947488 114.712434,19.6695584 116.703237,17.9657179 C118.076447,16.7912618 119.44272,15.9097155 120.797511,15.3136075 C122.221642,14.6869897 123.495555,14.3881777 124.614183,14.3881777 C125.680752,14.3881777 126.5095,14.664457 127.12815,15.1481286 C127.819155,15.6883688 128.212848,16.4810013 128.212848,17.5792097 C128.212848,17.6636365 128.210849,17.7480834 128.206836,17.8325461 L128.2,17.914 L128.408706,17.6023512 C128.690285,17.1954155 128.995327,16.8002042 129.323906,16.4167698 L129.660334,16.0372631 C130.524379,15.0946681 131.32407,14.5035899 132.031573,14.2178263 C132.408666,14.0364723 132.773972,13.9550668 133.123539,13.9550668 C133.300903,13.9550668 133.482319,13.9760235 133.667293,14.0204301 C134.319604,14.952431 134.45728,15.4368696 134.407778,15.9489524 C137.002633,15.5681639 138.689239,15.3817852 139.467341,15.3817852 C140.049827,15.3817852 140.435267,15.4802045 140.653391,15.5892665 C141.123494,15.837839 141.567338,16.3348602 141.86822,17.2375048 C142.090188,17.9034106 142.199785,18.5694625 142.199785,19.2352222 C142.199785,19.7696643 142.00406,20.3645885 141.5265,20.9970336 C141.197228,21.4330959 140.63399,22.0709944 139.832993,22.9077581 C138.996313,23.8093527 138.293139,24.7894603 137.724091,25.8485226 C137.225111,26.7771793 136.926022,27.4721174 136.926022,27.9483957 C138.2425,28.1458201 139.607716,27.2607186 141.537138,25.724922 C141.679944,24.9820946 141.932206,24.2940467 142.291266,23.6597072 C142.831961,22.70448 143.86695,21.4616689 145.416797,19.9478678 C147.21,18.1898256 148.878006,16.8349186 150.416091,15.8769115 C152.126549,14.8115406 153.477549,14.3372235 154.447885,14.3372235 C155.338405,14.3372235 156.091279,14.6492275 156.709096,15.2670446 C157.32078,15.8787285 157.638917,16.6459106 157.638917,17.5792097 C157.638917,18.2317336 157.349442,19.1726837 156.67093,20.38578 C156.067717,21.4642522 155.389921,22.3998786 154.640574,23.1949179 C153.638189,24.2584242 152.81721,24.617286 152.256853,24.617286 C151.690864,24.617286 151.3005,24.4136599 151.027256,24.1193973 C150.885061,23.9662642 150.764984,23.7755532 150.687649,23.5373515 L150.684,23.525 L150.606512,23.5722384 C149.399553,24.3075566 148.61739,24.864496 148.127077,25.2369613 L148.026429,25.3139495 C147.481091,25.7340071 147.046226,26.1544674 146.729102,26.5822165 C146.50387,26.8860178 146.378032,27.2028149 146.378032,27.5407618 C146.378032,28.243689 146.587427,28.8257515 147.043779,29.2700937 C147.510684,29.7247123 148.125577,29.9292182 148.868397,29.9292182 C149.809184,29.9292182 150.931602,29.5378235 152.247593,28.8166309 C153.573221,28.0901565 155.111113,27.0604932 156.863082,25.7308934 C156.891496,25.558003 156.924755,25.3875025 156.962714,25.2190607 C157.11806,24.5297087 157.306698,23.9634057 157.520181,23.517033 C157.716141,23.1072972 158.079536,22.4649817 158.614025,21.5919824 C161.343728,17.3432048 163.884008,15.4836937 166.090927,15.4836937 C166.894832,15.4836937 167.472195,15.6868357 167.866843,15.9909088 C168.354326,16.3665109 168.645031,16.9125655 168.645031,17.6811181 C168.645031,18.3254244 168.306551,19.3484517 167.503385,20.7311186 C166.768097,21.9969297 166.102347,22.8908758 165.525873,23.4303936 C164.099589,24.8077872 163.165895,25.7650139 162.73061,26.3070671 C162.428004,26.6838975 162.275752,27.1118921 162.275752,27.5917161 C162.275752,27.9044116 162.393633,28.164609 162.627998,28.3729337 C162.915749,28.6287129 163.295682,28.7317938 163.747032,28.7317938 C164.39172,28.7317938 165.092791,28.4695286 165.862769,27.9993648 C166.629489,27.5311906 167.583079,26.828 168.725749,25.8932567 C168.769752,25.5904142 168.828107,25.3139503 168.900016,25.0622702 C169.084342,24.4171273 169.434371,23.7518224 169.967747,23.0748452 C170.430222,22.4878573 171.16606,21.7119201 172.180095,20.7512557 C174.861627,18.3164023 177.451663,16.5237794 179.959317,15.3488647 C182.571154,14.1251367 184.59269,13.5474329 186.014031,13.5474329 C186.613706,13.5474329 187.184506,13.7705268 187.704717,14.2762875 C188.099866,14.6604607 188.412907,15.1048715 188.643424,15.6098133 C188.907265,16.1877511 189.001246,16.6181967 189.001246,16.8913276 C189.001246,17.595866 188.702388,18.0941036 188.163544,18.4212586 C188.071738,18.4769981 187.957399,18.537475 187.820217,18.6020921 L187.731,18.643 L187.748862,18.6827794 C187.968398,19.1845428 188.09544,19.4870008 188.187472,19.7198387 L188.220455,19.8041428 C188.374872,20.2030526 188.440749,20.5581007 188.440749,20.8657576 C188.440749,21.3678585 188.047518,22.3382021 187.008775,23.7410402 C186.883229,23.9105922 186.763457,24.073274 186.651393,24.2264354 L186.325778,24.6745565 C185.876418,25.2977216 185.540536,25.7849678 185.319126,26.1369522 C185.079001,26.5186899 184.975862,26.9902446 184.975862,27.5407618 C184.975862,27.8504944 184.994729,28.1142599 185.1453,28.2781164 C185.270413,28.4142681 185.477596,28.4260684 185.708306,28.4260684 C186.633209,28.4260684 187.979042,27.5618949 189.78719,26.0558709 C189.94711,24.5741464 190.342216,22.9014975 190.978422,21.0392704 C191.811987,18.5993579 192.926961,16.1243383 194.324945,13.6149142 C195.722255,11.106699 197.172696,8.92036926 198.674111,7.05444819 C200.239766,5.10869217 201.701785,3.75995429 203.039782,2.98237326 C203.762602,2.5506686 204.335555,2.38845636 204.739711,2.38845636 C206.548074,3.72022798 206.63141,4.4463576 206.63141,5.47757983 C206.63141,7.9662788 205.652506,11.033261 203.625736,14.6653045 C201.708285,18.1014446 199.053465,21.6105285 195.655688,25.1885053 C195.536044,25.8515815 195.472433,26.3722375 195.472433,26.7509712 C195.472433,27.5993305 195.629884,28.2999365 195.997096,28.8340624 C196.266694,29.2262044 196.642596,29.4196759 197.122053,29.4196759 C197.379684,29.4196759 197.647039,29.2898993 197.93982,29.0930296 C198.396632,28.7858627 198.876377,28.4030179 199.380402,27.9462451 C200.096861,27.2969542 201.715555,25.8045319 204.236561,23.469063 L204.236561,27.9758816 C200.268616,33.3025088 197.004337,35.6998313 194.574342,35.6998313 C193.757308,35.6998313 193.029796,35.4727464 192.388989,35.0273425 C191.798856,34.6171603 191.277369,34.0113547 190.847365,33.188507 C190.448673,32.4255778 190.149795,31.537554 189.956916,30.5224039 C186.381067,34.1476626 183.730976,35.8017397 182.065078,35.8017397 C180.979301,35.8017397 180.258178,35.3856012 179.811528,34.6953246 C179.452131,34.1398921 179.230726,33.3280727 179.230726,32.2285511 C179.230726,31.6844173 179.302559,31.0460301 179.448505,30.313724 C178.724467,31.087189 178.091084,31.7475543 177.54808,32.2951855 L177.184551,32.6583232 C175.323885,34.4597333 174.098193,35.0119492 173.173565,35.0119492 C172.628887,35.0119492 171.8798,34.6926985 171.01729,33.6995054 C170.396514,32.984672 169.840425,32.0615553 169.36042,30.9227203 C168.127826,31.7741535 167.09162,32.7540131 166.107988,33.4975928 C164.445116,34.7546447 163.019499,35.3176745 161.861725,35.3176745 C160.943003,35.3176745 160.145838,35.0679276 159.463955,34.5872556 C158.818968,34.1325928 158.271164,33.4607637 157.846796,32.5483734 C157.512344,31.8293004 157.252947,31.0801287 157.069007,30.3007986 C156.262887,30.9420222 155.558669,31.5600248 154.940371,32.1020133 C154.696251,32.3160048 154.465124,32.5185828 154.246118,32.7067657 C153.038828,33.7441402 151.910338,34.5463115 150.864187,35.118565 C149.70712,35.751491 148.573005,36.0565109 147.467155,36.0565109 C146.289045,36.0565109 145.196798,35.6109501 144.206879,34.6748313 C143.32234,33.8383647 142.621891,32.7470213 142.121385,31.3898789 C141.978529,31.0025206 141.856737,30.6082633 141.756012,30.2071713 C141.092933,30.8738353 140.50554,31.4439963 139.993886,31.91775 C139.026914,32.8130946 138.130218,33.5230022 137.306599,34.0511925 C136.323412,34.6817145 135.441606,34.9609949 134.677643,34.9609949 C133.651117,34.9609949 132.776745,34.5187469 132.085509,33.5682977 C131.511468,32.7789913 131.180886,31.6477271 131.180886,30.1394276 C131.180886,29.3017178 131.383659,28.3443962 131.812906,27.2712796 C132.208334,26.282708 132.78562,25.2074424 133.549631,24.0479442 C133.796676,23.6730161 134.053875,23.2985577 134.32124,22.9245786 L134.406,22.808 L133.995997,22.8823701 L133.50402,22.9710219 C133.099152,23.0436906 132.751781,23.1067698 132.461748,23.1606639 C131.373348,25.1878901 129.858941,27.0414217 127.912701,28.7170139 C125.97144,30.8904639 124.26019,32.5366576 122.657305,33.7104881 C120.78181,35.0839564 118.873998,35.7507855 116.945571,35.7507855 C115.095386,35.7507855 113.634244,35.0272012 112.554689,33.5947148 C111.892289,32.7157619 111.434778,31.6244595 111.20337,30.3123994 L111.192,30.245 L111.164312,30.2709378 C110.523059,30.8344409 109.927253,31.3541443 109.362677,31.8333495 L109.027566,32.1160393 C107.763915,33.175014 106.662936,33.9639011 105.728703,34.4888511 C104.641058,35.1000044 103.730031,35.3686288 103.009589,35.3686288 C102.187689,35.3686288 101.496556,35.0600418 100.939123,34.4362475 C100.422979,33.8586585 100.149759,33.1438323 100.149759,32.2795053 C100.149759,31.5957325 100.268119,30.9014009 100.509539,30.19726 C100.726525,29.5643832 101.059111,28.8131064 101.511224,27.9450493 C101.607411,27.7603694 101.710422,27.5673433 101.820262,27.3659753 L101.723439,27.4568444 C100.680616,28.4840316 99.7995397,29.4020585 99.0807108,30.2113902 L98.847111,30.4771424 C97.9964232,31.4554333 97.3243771,32.2253033 96.8309782,32.7867572 C95.6043745,34.1449212 94.4506741,34.7062238 93.4301933,34.7062238 C92.6110019,34.7062238 92.0210162,34.3828048 91.6183941,33.8098426 C91.3078112,33.3678592 91.1053833,32.7175247 91.1053833,31.8209172 C91.1053833,31.2322052 91.4345937,30.1649747 92.2057192,28.63261 C92.6370219,27.775534 93.1853964,26.7672533 93.851145,25.6079308 L94.001,25.347 L93.9796161,25.3707979 C93.2569605,26.1334155 92.2191011,27.2643731 90.8669115,28.7620166 L90.6096926,29.0471215 C90.0706963,29.6514507 89.4633467,30.4403474 88.7855542,31.4121221 C88.0461465,32.4722367 87.5134121,33.1781612 87.1927578,33.5344437 C86.6392677,34.1494327 86.0670206,34.3750213 85.5322875,34.3750213 C84.9974623,34.3750213 84.4626818,34.1742772 83.9562254,33.6904979 C83.6035356,33.3536002 83.2525833,32.8560145 82.9253395,32.1804143 C82.6485233,31.608923 82.4349328,30.9936752 82.2863132,30.3344503 C81.5653025,30.9823635 80.8826727,31.5761417 80.2384252,32.1160393 C78.9747746,33.175014 77.8737959,33.9639011 76.9395629,34.4888511 C75.851917,35.1000044 74.9408904,35.3686288 74.2204483,35.3686288 C73.3985484,35.3686288 72.7074153,35.0600418 72.1499822,34.4362475 C71.6338387,33.8586585 71.3606188,33.1438323 71.3606188,32.2795053 C71.3606188,31.5957325 71.4789785,30.9014009 71.7203983,30.19726 C71.9373846,29.5643832 72.2699704,28.8131064 72.7220834,27.9450493 C72.8182709,27.7603694 72.9212811,27.5673433 73.0311218,27.3659753 L73.035,27.357 L72.934299,27.4568444 C71.8914754,28.4840316 71.0103992,29.4020585 70.2915703,30.2113902 L70.0579705,30.4771424 C69.2072827,31.4554333 68.5352366,32.2253033 68.0418378,32.7867572 C66.815234,34.1449212 65.6615336,34.7062238 64.6410528,34.7062238 C63.8218614,34.7062238 63.2318757,34.3828048 62.8292536,33.8098426 C62.5186707,33.3678592 62.3162428,32.7175247 62.3162428,31.8209172 C62.3162428,31.2322052 62.6454533,30.1649747 63.4165787,28.63261 C63.8478815,27.775534 64.3962559,26.7672533 65.0620045,25.6079308 L65.212,25.347 L65.1904756,25.3707979 C64.46782,26.1334155 63.4299606,27.2643731 62.077771,28.7620166 L61.8205521,29.0471215 C61.2815558,29.6514507 60.6742062,30.4403474 59.9964137,31.4121221 C59.257006,32.4722367 58.7242716,33.1781612 58.4036174,33.5344437 C57.8501273,34.1494327 57.2778801,34.3750213 56.743147,34.3750213 C56.2083218,34.3750213 55.6735413,34.1742772 55.1670849,33.6904979 C54.8143951,33.3536002 54.4634428,32.8560145 54.136199,32.1804143 C53.8166498,31.5206999 53.5813322,30.8025944 53.4330939,30.025493 C53.0687481,30.2816876 52.741224,30.4814175 52.4516172,30.6262209 C51.7472969,30.9783811 50.7746719,31.1709744 49.519616,31.1552185 C47.1513237,33.8532671 45.0317223,35.0629034 43.2402758,35.0629034 C42.061225,35.0629034 40.9845869,34.6794682 40.0148514,33.8994636 C39.1156109,33.1761614 38.3885821,32.194649 37.8502687,30.9418469 C37.7563848,30.7233535 37.6708547,30.5002682 37.5937326,30.2725766 L37.557,30.157 L37.1762219,30.5634895 C35.2732513,32.578213 33.4817265,34.3268343 31.8021863,35.8099127 L31.3469068,36.2078053 C28.8877538,38.3344038 26.4836071,39.9677276 24.1384783,41.1140405 C21.7110526,42.3005807 19.3638191,42.8843778 17.1007554,42.8843778 C15.0755894,42.8843778 13.3410352,42.468605 11.8895866,41.6632851 C10.3904947,40.8315309 9.25633156,39.6197591 8.49197882,38.0233262 C7.76291343,36.5005947 7.38758188,34.6982051 7.38758188,32.6107078 C7.38758188,31.012649 7.64051801,29.3197936 8.15233823,27.5329124 C8.65472082,25.7789802 9.3807844,24.0069494 10.3327077,22.2176862 C11.2701324,20.455675 12.4196023,18.6368456 13.7823615,16.7619666 C15.1333937,14.9032217 16.7207367,12.9495412 18.5463875,10.8999927 C20.4495992,8.77185604 22.3274517,6.93417588 24.1787278,5.38567859 C26.0456398,3.8241027 27.7392958,2.6002745 29.2571623,1.71049069 C30.8018977,0.804956102 32.236662,0.132721032 33.5593,-0.311117219 C34.9526047,-0.778669136 36.1084923,-1 37.0238597,-1 Z M126.754,21.454 L126.624248,21.6217817 C125.769701,22.6798211 124.531973,23.7370096 122.896899,24.7790514 C121.472544,25.6868008 119.771051,26.5679856 117.791057,27.4200434 L117.309,27.624 L117.313798,27.8226423 C117.338115,28.3496047 117.450281,28.7927031 117.688649,29.1350123 L117.798644,29.2754961 C118.100116,29.6185501 118.499457,29.7763555 118.98374,29.7763555 C119.687729,29.7763555 120.415063,29.6044542 121.168391,29.2744248 C121.997151,28.9113488 122.821229,28.4286877 123.642009,27.8288867 C124.494104,27.2062021 125.531005,26.3737506 126.753197,25.3323548 C127.167717,24.8299769 127.527345,24.3698948 127.833625,23.9492527 C127.653634,23.8224301 127.501827,23.6884825 127.376299,23.5499691 C126.994784,23.1289867 126.747868,22.5152709 126.747868,21.6555482 C126.747868,21.5991342 126.749475,21.5415167 126.752722,21.4827016 L126.754,21.454 Z M46.8254492,22.1312103 C46.6814612,22.2275648 46.541254,22.3226903 46.4048773,22.4163048 C45.4605024,23.0645621 44.6589438,23.7194486 44.0026093,24.3837872 C43.4459466,24.9472385 43.0549647,25.5077074 42.8541963,26.0791957 C42.5913822,27.2572442 42.411505,28.0946613 42.4219424,29.3396279 C42.6830564,29.5269488 43.08781,29.5725386 43.5969555,29.5725386 C44.1339159,29.5725386 44.9591752,29.101006 46.0950492,28.2983444 C45.9188736,27.6426094 45.8325491,27.0077362 45.8325491,26.3942916 C45.8325491,25.2041571 46.0741321,23.9894137 46.565502,22.7515395 C46.6454917,22.5500272 46.7321335,22.3432474 46.8254492,22.1312103 Z M181.907682,21.2947932 C179.409823,22.5486856 177.516975,23.655998 176.232685,24.6206686 C174.700323,25.7716735 173.816885,26.9285576 173.816885,28.1776897 C173.816885,28.5251968 173.857506,28.817316 173.861447,29.0375191 C173.963646,29.0375191 174.13013,28.9279811 174.372312,28.8043648 C176.057164,27.8057336 177.596786,26.5058392 178.99385,24.9080486 C179.861632,23.9155846 180.832789,22.7110683 181.907682,21.2947932 Z M122.139924,19.6461954 C121.508126,20.0049943 120.869738,20.4745812 120.222455,21.0516772 C119.580004,21.6244647 119.004341,22.2986706 118.49354,23.0726123 C118.430387,23.1682976 118.370111,23.2651085 118.312712,23.3630451 C118.871664,23.0401228 119.386334,22.6879978 119.856297,22.3061526 C120.844443,21.5032843 121.581647,20.741075 122.053011,20.0069838 C122.158992,19.8419319 122.258873,19.6924026 122.139924,19.6461954 Z M169.887017,8.06985311 C170.672216,8.06985311 171.319142,8.32536553 171.839915,8.8070803 C172.362563,9.29052971 172.670415,9.97394759 172.670415,10.9042054 C172.670415,11.8120654 172.28564,12.8345422 171.411122,13.9436859 C170.470839,15.1362411 169.440283,15.6493414 168.383867,15.6493414 C167.737765,15.6493414 167.114421,15.4240645 166.528523,14.9293061 C165.907607,14.404977 165.600469,13.7416482 165.600469,12.9423747 C165.600469,12.0204428 165.992385,10.9743821 166.881156,9.83167673 C167.848559,8.58787207 168.876128,8.06985311 169.887017,8.06985311 Z"/><path fill="#FBCD04" stroke-linecap="round" stroke-linejoin="round" stroke-width="4" d="M74.6952381,45.0629034 L74.6952381,68.6681665 L87,68.6681665 L87,79.0629034 L63,79.0629034 L63,45.0629034 L74.6952381,45.0629034 Z"/><path fill="#25BA08" stroke-linecap="round" stroke-linejoin="round" stroke-width="4" d="M104,45.0629034 C107.33159,45.0629034 110.340856,45.7870391 113.033567,47.2135046 C115.771466,48.6639084 117.951164,50.7274263 119.570502,53.4064815 C121.17975,56.068844 122,59.1178892 122,62.5629034 C122,65.7140362 121.241403,68.6132234 119.733344,71.2630177 C118.223101,73.9166472 116.087031,76.052295 113.31469,77.6598639 C110.566079,79.253673 107.463528,80.0629034 104,80.0629034 C100.66841,80.0629034 97.6591445,79.3387677 94.9664332,77.9123022 C92.228534,76.4618984 90.0488356,74.3983805 88.4294979,71.7193253 C86.8202501,69.0569628 86,66.0079175 86,62.5629034 C86,59.4117706 86.7585968,56.5125834 88.2666564,53.8627891 C89.7768988,51.2091596 91.9129694,49.0735117 94.6853097,47.4659429 C97.4339206,45.8721337 100.536472,45.0629034 104,45.0629034 Z M104,55.9909337 C102.874977,55.9909337 101.861936,56.2425167 100.967831,56.7701754 C100.082179,57.2928448 99.3864859,58.0390385 98.8674587,58.9957696 C98.3158406,60.012576 98.0583942,61.1919055 98.0583942,62.523762 C98.0583942,63.8110583 98.3053974,64.9773789 98.82242,66.0170545 C99.3019276,66.9812917 99.985131,67.7457269 100.877582,68.3053398 C101.778005,68.8699515 102.822324,69.1348731 104,69.1348731 C105.125023,69.1348731 106.138064,68.8832901 107.032169,68.3556314 C107.917821,67.8329619 108.613514,67.0867683 109.132541,66.1300372 C109.684159,65.1132308 109.941606,63.9339013 109.941606,62.6020448 C109.941606,61.3147484 109.694603,60.1484278 109.17758,59.1087522 C108.698072,58.1445151 108.014869,57.3800799 107.122418,56.820467 C106.221995,56.2558553 105.177676,55.9909337 104,55.9909337 Z"/><path fill="#29E3FB" stroke-linecap="round" stroke-linejoin="round" stroke-width="4" d="M133.802575,45.0629034 L133.802575,63.1840374 C133.802575,64.9583142 134.049808,66.3371426 134.766259,67.2211965 C135.364009,67.958782 136.308195,68.2201199 137.480687,68.2201199 C138.659313,68.2201199 139.608164,67.9480634 140.216011,67.1999333 C140.94109,66.3075157 141.197425,64.9374523 141.197425,63.1840374 L141.197425,45.0629034 L153,45.0629034 L153,63.7252745 C153,68.648342 151.577092,72.3856335 148.911237,75.0242963 C146.253639,77.6547864 142.473247,79.0629034 137.480687,79.0629034 C132.547074,79.0629034 128.785268,77.6596315 126.111997,75.0281664 C123.430495,72.3885999 122,68.6500176 122,63.7252745 L122,45.0629034 L133.802575,45.0629034 Z"/><path fill="#9A21F8" stroke-linecap="round" stroke-linejoin="round" stroke-width="4" d="M196.595113,45.0629034 C198.395997,45.0629034 200.204084,45.2912006 202.019136,45.7502059 C204.484292,46.373615 206.4261,47.2968866 207.867474,48.4693671 L206.106289,59.3111248 C205.300956,58.4406625 204.481738,57.7389702 203.640469,57.2160211 C202.736604,56.6541605 201.658978,56.2064438 200.414202,55.8583127 C199.16033,55.5076376 197.990261,55.3255296 196.902269,55.3255296 C196.075924,55.3255296 195.417971,55.3762082 194.993888,55.6505739 C195.454436,56.2977284 196.451183,56.6511779 197.889632,57.0825073 C201.763414,58.2233728 204.496956,59.6893904 206.169573,61.3654018 C208.023709,63.2233009 209,65.6560947 209,68.7081054 C209,72.3435524 207.684704,75.143351 205.156575,77.1603816 C202.79789,79.0422231 199.531124,80.0629034 195.289703,80.0629034 C193.932346,80.0629034 192.54724,79.9506062 191.134445,79.7246796 C189.709902,79.4968743 188.376538,79.1680687 187.133627,78.7409585 C185.206457,78.0787118 183.805358,77.2677405 182.895818,76.3724911 L184.129369,64.9846611 C184.981346,66.0145206 185.870798,66.8494035 186.807087,67.4789707 C187.852315,68.1817892 189.112484,68.7340147 190.579186,69.1531346 C192.079651,69.5819024 193.534272,69.8002771 194.944154,69.8002771 C195.897865,69.8002771 196.661274,69.71008 197.181617,69.3829589 C197.241243,68.8115312 196.940904,68.6654076 196.569298,68.5000974 C195.928175,68.2148919 195.023039,67.910912 193.849425,67.5758876 C190.257511,66.5339125 187.711613,65.1008009 186.126888,63.3963132 C184.411518,61.5513084 183.499127,59.136597 183.499127,56.1045701 C183.499127,52.6453352 184.762134,49.9366939 187.21065,47.9397704 C189.503163,46.0700782 192.611249,45.0629034 196.595113,45.0629034 Z"/></g></svg>